<svg width="532" height="638" viewBox="0 0 532 638" fill="none" xmlns="http://www.w3.org/2000/svg">
<path d="M66.4464 604.8C65.651 606.722 64.3462 608.32 62.5353 609.378C56.1251 613.122 67.8421 606.082 69.1353 605.467C77.3588 601.551 85.1934 596.779 93.4242 592.933C93.8067 592.755 95.0097 592.634 94.6908 592.911C90.206 596.806 84.3764 599.652 79.4241 602.867C72.1754 607.572 62.7725 612.775 57.6686 620.067C54.2863 624.898 68.905 616.37 74.2241 613.822C78.5866 611.732 82.8969 609.538 87.2464 607.422C89.3257 606.411 93.4938 602.609 93.713 604.911C94.1274 609.261 81.7737 619.794 79.4242 622.622C76.7482 625.843 74.0678 629.067 71.4464 632.333C70.9613 632.938 69.484 634.081 70.2241 634.311C71.3679 634.666 75.3086 632.895 75.6019 632.778C85.9491 628.629 95.8463 623.218 105.557 617.778C120.394 609.466 135.822 601.573 150.135 592.4C157.726 587.535 155.235 588.494 148.802 591.556C135.803 597.742 122.323 602.765 109.513 609.378C107.676 610.326 98.5716 615.097 99.4241 614.422C112.228 604.294 125.363 595.164 139.424 586.844C147.439 582.102 155.807 575.421 164.624 572.156C168.241 570.816 159.36 577.866 156.224 580.111C143.657 589.111 130.457 597.387 117.557 605.911C115.504 607.268 110.22 612.267 107.624 612.267C106.487 612.267 109.149 610.578 109.957 609.778C114.165 605.612 118.472 601.31 121.824 596.4C123.212 594.367 123.91 593.003 120.846 592.867C109.362 592.355 96.8582 595.064 85.7353 597.511C67.1444 601.601 49.8037 609.368 31.6464 614.844C27.2428 616.173 25.5658 616.844 31.4019 615.022C48.673 609.632 64.5175 598.761 80.6686 590.756C82.0813 590.055 97.3172 580.783 99.3797 582.667C102.451 585.471 80.5723 613.93 78.2019 617.467C77.5008 618.513 74.1272 622.54 74.6686 624.489C75.7856 628.51 85.4356 624.862 86.8019 624.356C113.55 614.443 137.744 596.593 162.091 582C163.069 581.414 184.829 568.322 179.335 575.822C171.099 587.066 159.647 595.29 148.002 602.644C140.987 607.075 132.077 610.683 126.002 616.444C124.958 617.435 126.485 616.788 127.069 616.578C137.933 612.655 148.399 607.347 158.491 601.778C178.534 590.717 197.308 577.233 216.38 564.6C218.67 563.083 224.431 557.566 223.246 560.044C222.362 561.894 220.126 562.706 218.535 564C213.321 568.243 209.815 571.032 204.535 575.467C192.147 585.871 181.004 597.777 168.469 607.956C168.349 608.053 162.678 612.341 162.802 612.533C164.236 614.764 204.169 597.068 206.357 596.222C214.664 593.014 223.077 589.529 231.713 587.222C233.345 586.786 236.848 585.519 238.669 585.867C241.388 586.386 235.464 590.442 233.402 592.289C223.691 600.987 212.924 608.429 202.513 616.244C195.866 621.234 189.314 626.36 182.491 631.111C180.916 632.208 177.017 635.592 174.713 635.822C172.487 636.045 177.856 632.63 179.557 631.178C191.534 620.952 204.037 611.242 217.024 602.333C234.879 590.086 254.35 580.506 272.291 568.489C286.632 558.883 241.91 585.047 227.824 595.022C216.048 603.362 204.024 611.672 191.135 618.244C190.128 618.758 186.937 619.795 187.869 619.156C200.36 610.582 214.434 603.739 227.735 596.578C244.73 587.428 262.552 577.053 281.335 571.822C283.404 571.246 278.52 575.098 276.846 576.444C266.382 584.86 256.016 593.309 246.624 602.933C243.031 606.616 239.61 610.466 236.024 614.156C235.928 614.255 231.42 618.143 232.869 617.6C249.788 611.255 265.859 602.821 283.024 597.022C284.208 596.622 301.455 591.066 296.002 593.733C284.205 599.503 271.331 603.205 259.98 609.844C248.149 616.764 272.499 603.732 273.113 603.422C275.422 602.259 319.79 581.286 320.113 583.222C320.346 584.622 304.793 598.751 305.38 598.844C315.376 600.437 328.822 593.296 337.78 589.6C344.282 586.917 347.103 585.583 338.269 591.022C336.852 591.894 311.267 606.208 313.691 609.556C317.551 614.886 345.527 599.333 348.758 597.644C358.376 592.619 367.755 587.155 377.424 582.222C380.918 580.44 386.36 576.912 390.58 576.533C392.155 576.392 388.651 579.056 387.513 580.156C383.542 583.993 379.815 587.979 376.469 592.378C375.698 593.391 372.854 596.411 373.113 598.044C373.687 601.659 386.33 598.155 387.158 597.956C403.975 593.909 417.572 584.319 433.402 578.178C440.402 575.462 428.98 588.197 428.002 589.644C427.167 590.879 418.353 602.06 423.402 602.889C433.794 604.595 447.096 599.407 457.202 597.2C461.049 596.36 468.669 593.021 462.269 598.533C460.217 600.3 440.72 614.651 441.98 617.267C444.745 623.011 476.413 609.038 479.646 607.733C486.101 605.128 492.475 602.336 499.002 599.911C501.116 599.126 508.387 596.282 502.202 600.511C492.31 607.275 482.269 613.854 472.357 620.6C471.411 621.244 468.359 622.829 469.38 622.311C476.695 618.602 484.581 615.973 492.18 612.933C500.727 609.515 509.191 605.974 517.291 601.578C521.528 599.278 533.37 593.585 528.646 592.622C522.304 591.329 512.837 594.213 506.891 595.511C494.266 598.267 482.181 602.484 470.002 606.711C468.594 607.2 440.735 615.036 441.558 611.6C442.454 607.855 450.261 601.972 452.491 599.733C453.563 598.657 466.329 587.976 465.557 585.467C464.37 581.606 418.744 603.118 414.535 605.333C410.081 607.678 389.496 622.497 383.646 617.622C379.651 614.293 400.055 597.515 402.669 595.111C405.29 592.7 402.436 593.535 400.091 594.156C386.037 597.877 371.924 602.558 358.58 608.333C352.526 610.953 346.871 614.308 341.024 617.333C339.092 618.333 336.58 619.607 334.491 620.444C333.516 620.835 331.431 622.383 331.469 621.333C331.492 620.666 332.266 620.253 332.757 619.8C336.035 616.78 345.445 609.179 347.78 607.267C352.401 603.482 371.178 591.2 352.757 597.489C337.274 602.775 322.287 608.831 307.402 615.578C297.719 619.967 301.098 616.357 308.402 611.067C317.537 604.45 326.864 598.109 335.869 591.311C339.363 588.673 350.224 581.797 346.002 582.956C340.993 584.331 335.697 587.36 330.98 589.333C319.571 594.106 308.115 598.749 296.758 603.644C294.037 604.817 277.838 613.896 274.313 611.222C271.376 608.994 288.508 594.93 290.313 593.556C291.938 592.319 292.681 592.043 289.891 593C278.753 596.821 267.72 600.929 256.624 604.867C252.337 606.388 237.859 613.669 232.446 611.733C231.048 611.233 249.509 598.059 250.535 597.422C256.262 593.867 274.451 585.702 267.824 586.933C252.384 589.802 237.332 596.218 222.935 602.244C216.874 604.782 210.876 607.446 204.713 609.733C201.856 610.794 196.594 613.716 193.38 613.556C191.111 613.442 196.651 610.385 198.469 609.022C207.214 602.463 215.896 595.854 224.38 588.956C229.9 584.467 235.442 579.954 240.58 575.022C240.821 574.79 248.936 567.596 243.38 569.733C229.125 575.216 215.674 583.32 201.935 589.956C192.122 594.695 182.438 600.476 172.18 604.222C171.877 604.333 170.98 604.685 171.291 604.6C178.869 602.52 186.433 600.148 193.869 597.622C201.315 595.093 209.158 592.462 215.913 588.311C221.19 585.068 204.21 592.407 198.535 594.889C179.206 603.343 160.457 612.895 139.735 617.467C138.083 617.831 133.732 619.251 131.824 618.578C130.993 618.284 132.851 617.096 133.58 616.6C136.445 614.648 141.402 611.709 144.113 610.111C151.915 605.514 176.022 592.995 167.869 596.933C143.739 608.589 117.185 618.8 90.0686 618.8C85.8182 618.8 92.5924 615.488 93.3797 614.978C103.892 608.159 114.6 601.557 125.602 595.556C128.145 594.168 133.484 592.442 135.424 589.978C138.108 586.568 126.753 588.427 122.446 588.956C108.917 590.616 95.6067 594.143 82.2464 596.8C78.1816 597.608 74.107 598.371 70.0464 599.2C67.5885 599.702 60.8065 602.173 62.6242 600.444C64.5206 598.64 70.3042 597.211 72.1797 596.511C84.1977 592.024 96.1814 587.432 108.269 583.133C108.75 582.962 115.571 581.296 116.624 580.178C117.365 579.39 114.481 580.483 113.424 580.711C110.32 581.381 102.542 583.184 100.091 583.822C86.8381 587.272 73.9162 591.627 61.0464 596.289C57.6504 597.519 47.0462 601.442 42.4242 603.356C39.4644 604.581 40.6189 604.259 43.0242 604.044C68.3354 601.785 92.8791 596.358 117.691 591.111C123.742 589.831 147.476 581.241 152.069 589.333C156.516 597.17 162.697 600.781 172.002 601.156C192.778 601.991 213.488 595.336 232.935 588.844C238.024 587.146 243.316 584.735 248.602 583.622C252.243 582.856 245.825 589.679 245.713 589.822C244.135 591.839 228.821 610.075 231.869 612.711C234.015 614.567 243.547 611.023 244.18 610.822C262.097 605.139 279.255 597.01 295.98 588.511C303.764 584.555 311.396 580.315 319.246 576.489C321.544 575.369 330.334 569.782 324.402 576.533C314.164 588.186 303.757 599.767 297.669 614.244C293.143 625.004 320.9 609.099 323.113 608C330.577 604.295 337.77 600.034 345.38 596.622C348.716 595.127 354.415 592.106 358.402 593.156C369.637 596.112 330.102 620.382 369.424 608.311C383.349 604.037 396.047 596.864 409.335 591.044C417.328 587.544 410.132 594.951 408.313 598.622C403.96 607.406 411.258 608.133 419.069 606.844C428.451 605.297 437.738 602.41 446.757 599.467C451.662 597.866 456.969 594.475 462.002 593.333C464.53 592.76 461.759 607.544 461.913 609.444C463.156 624.778 487.08 610.93 493.646 608.4" stroke="#93B6E0" stroke-width="3" stroke-linecap="round"/>
<path d="M99.774 220.438C99.774 248.124 104.674 275.892 106.796 303.483C108.408 324.434 106.432 345.534 108.174 366.438" stroke="white" stroke-width="3" stroke-linecap="round"/>
<path d="M118.574 215.638C118.574 217.978 122.318 221.681 123.463 223.416C136.034 242.46 147.434 261.417 158.463 281.349C166.54 295.947 176.745 309.139 184.796 323.727C188.894 331.152 192.488 338.78 196.374 346.305C200.211 353.735 205.923 359.994 209.952 367.327C214.91 376.352 221.284 387.85 217.641 398.438C208.351 425.435 184.53 442.528 170.752 466.571C159.548 486.123 146.444 504.393 135.418 523.994C132.129 529.842 125.103 534.247 123.463 540.971C122.81 543.65 121.025 544.273 119.552 546.416C118.763 547.563 115.66 551.495 114.574 552.038" stroke="#666322" stroke-width="3" stroke-linecap="round"/>
<path d="M118.174 580.438C118.28 582.128 121.843 578.813 122.485 578.349C131.313 571.974 140.568 565.081 147.418 556.527C152.153 550.615 155.632 543.665 160.085 537.505C163.861 532.281 167.682 527.186 170.93 521.594C177.821 509.726 187.832 500.123 194.752 488.349C202.003 476.011 210.763 464.776 217.552 452.127C223.331 441.359 232.974 429.851 232.974 416.838C232.974 411.229 253.66 426.891 257.93 422.171C261.398 418.338 258.994 409.447 255.796 406.438C251.99 402.856 247.268 402.909 243.552 399.394C236.544 392.764 233.989 384.345 232.13 375.149C230.122 365.225 224.777 354.595 220.641 345.394C217.552 338.523 212.282 332.759 207.885 326.727C203.647 320.914 200.151 314.575 196.374 308.46C187.609 294.269 178.538 280.141 170.685 265.416C164.219 253.292 159.794 240.341 152.774 228.46C149.292 222.567 144.845 217.423 141.374 211.638" stroke="#666322" stroke-width="3" stroke-linecap="round"/>
<path d="M224.877 69.633C230.854 68.9628 236.792 66.5619 242.249 63.7066C250.334 60.6261 256.562 54.3332 263.999 49.8448C271.085 45.5685 278.694 40.4328 283.011 33.2769C288.404 24.3377 284.387 12.112 275.402 7.18133C269.897 4.1605 262.969 2.69708 256.709 2.29536C248.73 1.78325 239.674 1.6981 231.961 4.04987C215.898 8.94772 202.642 26.1343 200.038 41.7829C198.774 49.3765 198.876 63.4721 207.133 67.6786C212.344 70.3333 219.187 70.2711 224.877 69.633Z" fill="#93B6E0"/>
<path d="M250.494 57.6402C250.494 58.8018 249.268 59.7043 248.38 60.2386C241.412 64.4291 233.182 68.7017 224.877 69.633C219.187 70.2711 212.344 70.3333 207.133 67.6786C198.876 63.4721 198.774 49.3765 200.038 41.7829C202.642 26.1343 215.898 8.94772 231.961 4.04987C239.674 1.6981 248.73 1.78325 256.709 2.29536C262.969 2.69708 269.897 4.1605 275.402 7.18133C284.387 12.112 288.404 24.3377 283.011 33.2769C278.694 40.4328 271.085 45.5685 263.999 49.8448C254.898 55.3374 247.607 63.5325 236.509 65.2356" stroke="#435B76" stroke-width="3" stroke-linecap="round"/>
<path d="M110.224 221.556C109.783 221.57 109.237 221.426 108.723 221.206C107.435 221.494 106.133 221.733 104.813 221.911C100.422 222.503 95.8366 222.484 91.413 222.578C84.8916 222.716 78.3028 222.821 71.8241 222.011C60.6996 220.621 49.1181 218.376 40.2352 211.044C35.4242 207.074 30.1378 204.058 25.8797 199.422C22.135 195.346 18.0772 190.653 15.4019 185.789C11.9411 179.496 10.9459 171.944 8.50191 165.244C6.05045 158.525 3.97644 151.809 3.10191 144.667C1.54882 131.983 1.45678 118.011 4.00191 105.467C5.77951 96.7057 8.56686 88.3759 11.6464 79.9889C14.431 72.405 16.956 65.0566 21.713 58.4778C31.8667 44.4355 43.664 30.3291 58.5241 21.1778C74.3038 11.4602 90.581 6.65968 109.102 5.57778C141.053 3.71138 173.148 3.45247 203.224 15.9667C210.097 18.8262 217.143 21.8854 223.48 25.8222C227.529 28.338 231.158 31.6089 234.969 34.4667C242.162 39.8616 249.175 45.945 253.769 53.7556C263.83 70.8646 276.618 90.4536 275.102 111.311C274.465 120.07 271.093 127.365 268.302 135.467C266.549 140.554 264.667 145.181 261.88 149.8C258.663 155.133 255.067 160.274 250.913 164.933C246.652 169.713 241.655 173.133 236.412 176.722L236.169 176.889C226.237 183.688 215.466 188.101 204.591 193.044C194.586 197.592 184.276 201.621 173.602 204.322C164.123 206.72 155.336 211.258 145.902 213.911C134.568 217.099 121.943 221.174 110.224 221.556Z" fill="#FFEFEF"/>
<path d="M108.146 219.4C105.387 219.4 108.558 221.61 110.224 221.556C121.943 221.174 134.568 217.099 145.902 213.911C155.336 211.258 164.123 206.72 173.602 204.322C184.276 201.621 194.586 197.592 204.591 193.044C215.466 188.101 226.237 183.688 236.169 176.889C241.501 173.239 246.586 169.787 250.913 164.933C255.067 160.274 258.663 155.133 261.88 149.8C264.667 145.181 266.549 140.554 268.302 135.467C271.093 127.365 274.465 120.07 275.102 111.311C276.618 90.4536 263.83 70.8646 253.769 53.7556C249.175 45.945 242.162 39.8616 234.969 34.4667C231.158 31.6089 227.529 28.338 223.48 25.8222C217.143 21.8854 210.097 18.8262 203.224 15.9667C173.148 3.45247 141.053 3.71138 109.102 5.57778C90.581 6.65968 74.3038 11.4602 58.5241 21.1778C43.664 30.3291 31.8667 44.4355 21.713 58.4778C16.956 65.0566 14.431 72.405 11.6464 79.9889C8.56686 88.3759 5.77951 96.7057 4.00191 105.467C1.45678 118.011 1.54882 131.983 3.10191 144.667C3.97644 151.809 6.05045 158.525 8.50191 165.244C10.9459 171.944 11.9411 179.496 15.4019 185.789C18.0772 190.653 22.135 195.346 25.8797 199.422C30.1378 204.058 35.4242 207.074 40.2352 211.044C49.1181 218.376 60.6996 220.621 71.8241 222.011C78.3028 222.821 84.8916 222.716 91.413 222.578C95.8366 222.484 100.422 222.503 104.813 221.911C112.376 220.892 119.357 217.87 126.346 215" stroke="#780116" stroke-width="3" stroke-linecap="round"/>
<path d="M93.6518 103.16C93.875 103.017 94.0919 102.87 94.3033 102.72C100.846 102.522 107.137 100.722 112.552 96.7381C119.188 91.8565 125.837 87.6791 131.685 81.7159C138.651 74.6131 142.074 66.4497 142.074 56.4825C142.074 43.5218 140.94 30.4384 129.719 21.9159C121.508 15.6803 112.832 12.9771 102.563 13.7603C91.9977 14.5662 80.7166 16.6163 71.3407 21.8048C56.92 29.7848 50.2193 43.5781 50.963 59.827C51.764 77.3295 61.8468 96.1437 78.4518 103.205C83.1436 105.2 89.162 106.042 93.6518 103.16Z" fill="#ECFFFF"/>
<path d="M100.674 96.5381C98.3455 98.8666 96.5088 101.327 93.6518 103.16C89.162 106.042 83.1436 105.2 78.4518 103.205C61.8468 96.1437 51.764 77.3295 50.963 59.827C50.2193 43.5781 56.92 29.7848 71.3407 21.8048C80.7166 16.6163 91.9977 14.5662 102.563 13.7603C112.832 12.9771 121.508 15.6803 129.719 21.9159C140.94 30.4384 142.074 43.5218 142.074 56.4825C142.074 66.4497 138.651 74.6131 131.685 81.7159C125.837 87.6791 119.188 91.8565 112.552 96.7381C106.798 100.971 100.057 102.738 93.0741 102.738" stroke="#435B76" stroke-width="3" stroke-linecap="round"/>
<path d="M94.7518 191.238C83.3026 191.238 85.1836 214.255 85.3617 222.352C87.5267 229.474 90.0241 236.507 90.1741 243.905C90.3121 250.713 90.1741 257.539 90.1741 264.349C90.1741 279.923 91.7741 295.288 91.7741 310.883C91.7741 332.131 90.5779 353.379 92.7074 374.549C93.9203 386.607 93.675 400.239 91.3518 412.171C90.4307 416.903 90.5173 425.85 84.8852 427.638C82.282 428.464 76.1327 427.996 75.374 431.638C74.6777 434.98 77.3205 436.079 80.1963 435.571C84.8971 434.742 93.7741 426.881 93.7741 436.26C93.7741 474.073 94.5953 511.982 93.4629 549.771C93.2669 556.314 97.2806 574.838 87.574 574.838C80.7825 574.838 73.3521 573.912 66.9296 576.216C61.3175 578.229 28.8396 587.579 31.4407 595.816C35.1768 607.647 58.374 599.146 65.2407 596.616C70.7217 594.597 77.5374 588.992 83.5518 589.283C85.1464 589.36 93.932 589.304 94.1519 591.283C94.7206 596.401 87.0547 603.351 84.263 606.971C80.7083 611.581 79.8756 617.401 76.263 621.86C74.7969 623.67 70.6175 628.559 72.6629 631.371C74.7409 634.229 82.9095 629.216 84.7074 628.216C90.2607 625.126 94.5274 619.532 98.7296 614.883C104.803 608.162 113.069 598.691 122.485 598.838C132.959 599.002 141.386 608.86 150.419 612.994C157.558 616.261 162.797 615.51 168.93 611.06C172.938 608.152 176.574 605.93 176.574 601.038C176.574 598.7 177.495 594.541 176.152 592.638C174.625 590.475 169.961 590.712 167.507 589.46C157.826 584.521 142.648 587.238 132.063 587.238C124.461 587.238 117.035 585.711 113.33 578.749C110.876 574.14 112.174 566.105 112.174 561.127V496.438C112.174 435.745 106.974 375.36 106.974 314.683C106.974 296.349 106.765 278.106 106.219 259.794C105.915 249.638 104.633 239.484 104.574 229.327C104.534 222.439 105.959 191.238 94.7518 191.238Z" fill="#FFFCDF"/>
<path d="M88.9741 242.038C88.9741 245.564 89.3412 256.12 88.9518 252.616C87.8479 242.681 85.374 233.46 85.374 223.327C85.374 216.316 82.801 191.238 94.7518 191.238C105.959 191.238 104.534 222.439 104.574 229.327C104.633 239.484 105.915 249.638 106.219 259.794C106.765 278.106 106.974 296.349 106.974 314.683C106.974 375.36 112.174 435.745 112.174 496.438C112.174 518.001 112.174 539.564 112.174 561.127C112.174 566.105 110.876 574.14 113.33 578.749C117.035 585.711 124.461 587.238 132.063 587.238C142.648 587.238 157.826 584.521 167.507 589.46C169.961 590.712 174.625 590.475 176.152 592.638C177.495 594.541 176.574 598.7 176.574 601.038C176.574 605.93 172.938 608.152 168.93 611.06C162.797 615.51 157.558 616.261 150.419 612.994C141.386 608.86 132.959 599.002 122.485 598.838C113.069 598.691 104.803 608.162 98.7296 614.883C94.5274 619.532 90.2607 625.126 84.7074 628.216C82.9095 629.216 74.7409 634.229 72.6629 631.371C70.6175 628.559 74.7969 623.67 76.263 621.86C79.8756 617.401 80.7083 611.581 84.263 606.971C87.0547 603.351 94.7206 596.401 94.1519 591.283C93.932 589.304 85.1464 589.36 83.5518 589.283C77.5374 588.992 70.7217 594.597 65.2407 596.616C58.374 599.146 35.1768 607.647 31.4407 595.816C28.8396 587.579 61.3175 578.229 66.9296 576.216C73.3521 573.912 80.7825 574.838 87.574 574.838C97.2806 574.838 93.2669 556.314 93.4629 549.771C94.5953 511.982 93.7741 474.073 93.7741 436.26C93.7741 426.881 84.8971 434.742 80.1963 435.571C77.3205 436.079 74.6777 434.98 75.374 431.638C76.1327 427.996 82.282 428.464 84.8852 427.638C90.5173 425.85 90.4307 416.903 91.3518 412.171C93.675 400.239 93.9203 386.607 92.7074 374.549C90.5779 353.379 91.7741 332.131 91.7741 310.883C91.7741 295.288 90.1741 279.923 90.1741 264.349C90.1741 257.539 90.3121 250.713 90.1741 243.905C89.9067 230.713 82.1741 218.678 82.1741 205.238" stroke="#666322" stroke-width="3" stroke-linecap="round"/>
<path d="M363.735 259.711C369.516 263.063 375.905 267.83 382.619 272.351C389.623 277.982 396.665 283.514 403.291 289.8C414.118 300.072 426.249 307.598 439.202 315C444.261 317.891 450.289 323.051 455.735 324.867C456.577 325.147 453.977 322.773 453.691 322.2C450.615 316.048 444.093 311.319 439.38 306.378C419.064 285.079 398.863 262.585 376.713 242.822C346.729 216.07 311.746 192.465 285.424 161.756C268.799 142.359 242.396 118.952 214.135 122.556C180.959 126.786 200.289 168.888 217.513 179.889C229.199 187.352 242.04 190.995 254.18 197.444C271.209 206.491 286.656 217.652 303.291 227.267C323.104 238.718 343.982 248.258 363.735 259.711Z" fill="#FFFCDF"/>
<path d="M413.246 285.4C395.866 284.779 377.961 267.96 363.735 259.711C343.982 248.258 323.104 238.718 303.291 227.267C286.656 217.652 271.209 206.491 254.18 197.444C242.04 190.995 229.199 187.352 217.513 179.889C200.289 168.888 180.959 126.786 214.135 122.556C242.396 118.952 268.799 142.359 285.424 161.756C311.746 192.465 346.729 216.07 376.713 242.822C398.863 262.585 419.064 285.079 439.38 306.378C444.093 311.319 450.615 316.048 453.691 322.2C453.977 322.773 456.577 325.147 455.735 324.867C450.289 323.051 444.261 317.891 439.202 315C426.249 307.598 414.118 300.072 403.291 289.8C390.539 277.702 376.243 268.397 363.646 255.8" stroke="#666322" stroke-width="3" stroke-linecap="round"/>
<path d="M255.476 16.0902C252.14 18.806 251.444 22.1917 251.09 26.2755C249.679 29.8109 249.064 34.2796 248.904 36.6996C248.274 46.2532 258.742 45.6719 265.485 46.2565C272.242 46.8424 276.761 43.8369 280.511 38.113C286.258 29.3412 279.876 16.9793 270.811 13.7729C265.652 11.9482 259.803 12.5673 255.476 16.0902Z" fill="#215ACA"/>
<path d="M254.475 44.0973C253.75 43.9609 253.215 43.2146 252.908 42.612C250.369 37.6248 250.622 31.8161 251.079 26.4045C251.429 22.2629 252.105 18.8345 255.476 16.0902C259.803 12.5673 265.652 11.9482 270.811 13.7729C279.876 16.9793 286.258 29.3412 280.511 38.113C276.761 43.8369 272.242 46.8424 265.485 46.2565C258.742 45.6719 248.274 46.2532 248.904 36.6996C249.262 31.2689 251.916 15.5203 260.707 23.1574" stroke="#010407" stroke-width="3" stroke-linecap="round"/>
<path d="M91.6404 98.4355C94.6342 101.524 98.0674 101.925 102.167 101.925C105.811 103.025 110.316 103.252 112.74 103.202C122.313 103.005 120.829 92.6254 120.829 85.8577C120.829 79.0756 117.445 74.8326 111.418 71.5911C102.183 66.6235 90.4184 74.049 88.0071 83.3577C86.6349 88.655 87.7569 94.4287 91.6404 98.4355Z" fill="#215ACA"/>
<path d="M119.629 97.0133C119.556 97.7469 118.859 98.3445 118.285 98.7022C113.536 101.663 107.727 101.913 102.296 101.924C98.1396 101.933 94.6657 101.557 91.6404 98.4355C87.7569 94.4287 86.6349 88.655 88.0071 83.3577C90.4184 74.049 102.183 66.6235 111.418 71.5911C117.445 74.8326 120.829 79.0756 120.829 85.8577C120.829 92.6254 122.313 103.005 112.74 103.202C107.299 103.314 91.3802 102.031 98.2293 92.6133" stroke="#010407" stroke-width="3" stroke-linecap="round"/>
<ellipse cx="108.446" cy="81.5" rx="3" ry="2.5" fill="#D9D9D9"/>
<ellipse cx="256.446" cy="40.5" rx="3" ry="2.5" fill="#D9D9D9"/>
</svg>
